STARTFONT 2.1
FONT --MS Sans Serif-Regular-R-Normal--18-180-96-72-P-121-WINDOWS-ANSI~2.0
SIZE 18 96 72
FONTBOUNDINGBOX 23 22 0 -4
METRICSSET 2
STARTPROPERTIES 20
FONT_ASCENT 14
PIXEL_SIZE 18
RESOLUTION_X 96
RESOLUTION_Y 72
POINT_SIZE 180
FACE_NAME "MS Sans Serif 18"
COPYRIGHT "(c) Copyright Microsoft Corp. 1987. All rights reserved."
FOUNDRY ""
FAMILY_NAME "MS Sans Serif"
WEIGHT_NAME "Regular"
RELATIVE_WEIGHT 50
SLANT "R"
SPACING "P"
SETWIDTH_NAME "Normal"
RELATIVE_SETWIDTH 50
ADD_STYLE_NAME ""
AVERAGE_WIDTH 121
DEFAULT_CHAR 128
CHARSET_REGISTRY "WINDOWS"
CHARSET_ENCODING "ANSI-2.0"
ENDPROPERTIES
CHARS 224
STARTCHAR space
ENCODING 32
SWIDTH 250 0
DWIDTH 6 0
BBX 0 0 6 18
VVECTOR 9 18
SWIDTH1 0 -1222
DWIDTH1 0 -22
BITMAP 
ENDCHAR
STARTCHAR exclam
ENCODING 33
SWIDTH 250 0
DWIDTH 6 0
BBX 2 14 2 0
VVECTOR 3 18
SWIDTH1 0 -1222
DWIDTH1 0 -22
BITMAP 
C0
C0
C0
C0
C0
C0
C0
C0
C0
C0
C0
00
C0
C0
ENDCHAR
STARTCHAR quotedbl
ENCODING 34
SWIDTH 333 0
DWIDTH 8 0
BBX 6 5 1 9
VVECTOR 4 18
SWIDTH1 0 -1222
DWIDTH1 0 -22
BITMAP 
CC
CC
CC
CC
CC
ENDCHAR
STARTCHAR numbersign
ENCODING 35
SWIDTH 542 0
DWIDTH 13 0
BBX 12 14 0 0
VVECTOR 6 18
SWIDTH1 0 -1222
DWIDTH1 0 -22
BITMAP 
0630
0630
0C60
0C60
7FF0
18C0
18C0
18C0
FFE0
3180
3180
6300
6300
6300
ENDCHAR
STARTCHAR dollar
ENCODING 36
SWIDTH 542 0
DWIDTH 13 0
BBX 11 16 1 -2
VVECTOR 7 18
SWIDTH1 0 -1222
DWIDTH1 0 -22
BITMAP 
0400
1F00
7FC0
E4E0
C400
E400
7400
1F00
05C0
04E0
0460
E4E0
7FC0
1F00
0400
0400
ENDCHAR
STARTCHAR percent
ENCODING 37
SWIDTH 875 0
DWIDTH 21 0
BBX 19 14 1 0
VVECTOR 11 18
SWIDTH1 0 -1222
DWIDTH1 0 -22
BITMAP 
3C0180
660300
C30600
C30C00
C31800
663000
3C6000
00C780
018CC0
031860
061860
0C1860
180CC0
300780
ENDCHAR
STARTCHAR ampersand
ENCODING 38
SWIDTH 667 0
DWIDTH 16 0
BBX 14 14 1 0
VVECTOR 8 18
SWIDTH1 0 -1222
DWIDTH1 0 -22
BITMAP 
0F00
39C0
30C0
30C0
1980
0F00
1E18
7318
E1B0
C0F0
C060
C0F0
61D8
3F0C
ENDCHAR
STARTCHAR quotesingle
ENCODING 39
SWIDTH 167 0
DWIDTH 4 0
BBX 2 5 1 9
VVECTOR 2 18
SWIDTH1 0 -1222
DWIDTH1 0 -22
BITMAP 
C0
C0
C0
C0
C0
ENDCHAR
STARTCHAR parenleft
ENCODING 40
SWIDTH 333 0
DWIDTH 8 0
BBX 5 18 2 -4
VVECTOR 5 18
SWIDTH1 0 -1222
DWIDTH1 0 -22
BITMAP 
18
30
30
60
60
60
C0
C0
C0
C0
C0
C0
60
60
60
30
30
18
ENDCHAR
STARTCHAR parenright
ENCODING 41
SWIDTH 333 0
DWIDTH 8 0
BBX 5 18 1 -4
VVECTOR 3 18
SWIDTH1 0 -1222
DWIDTH1 0 -22
BITMAP 
C0
60
60
30
30
30
18
18
18
18
18
18
30
30
30
60
60
C0
ENDCHAR
STARTCHAR asterisk
ENCODING 42
SWIDTH 417 0
DWIDTH 10 0
BBX 8 6 1 8
VVECTOR 5 18
SWIDTH1 0 -1222
DWIDTH1 0 -22
BITMAP 
18
DB
7E
3C
66
66
ENDCHAR
STARTCHAR plus
ENCODING 43
SWIDTH 583 0
DWIDTH 14 0
BBX 12 9 1 1
VVECTOR 7 18
SWIDTH1 0 -1222
DWIDTH1 0 -22
BITMAP 
0600
0600
0600
0600
FFF0
0600
0600
0600
0600
ENDCHAR
STARTCHAR comma
ENCODING 44
SWIDTH 250 0
DWIDTH 6 0
BBX 2 4 2 -2
VVECTOR 3 18
SWIDTH1 0 -1222
DWIDTH1 0 -22
BITMAP 
C0
C0
40
80
ENDCHAR
STARTCHAR hyphen
ENCODING 45
SWIDTH 333 0
DWIDTH 8 0
BBX 6 1 1 5
VVECTOR 4 18
SWIDTH1 0 -1222
DWIDTH1 0 -22
BITMAP 
FC
ENDCHAR
STARTCHAR period
ENCODING 46
SWIDTH 250 0
DWIDTH 6 0
BBX 2 2 2 0
VVECTOR 3 18
SWIDTH1 0 -1222
DWIDTH1 0 -22
BITMAP 
C0
C0
ENDCHAR
STARTCHAR slash
ENCODING 47
SWIDTH 292 0
DWIDTH 7 0
BBX 7 14 0 0
VVECTOR 4 18
SWIDTH1 0 -1222
DWIDTH1 0 -22
BITMAP 
06
06
0C
0C
18
18
18
30
30
60
60
60
C0
C0
ENDCHAR
STARTCHAR zero
ENCODING 48
SWIDTH 542 0
DWIDTH 13 0
BBX 11 14 1 0
VVECTOR 7 18
SWIDTH1 0 -1222
DWIDTH1 0 -22
BITMAP 
1F00
7FC0
60C0
C060
C060
C060
C060
C060
C060
C060
C060
60C0
7FC0
1F00
ENDCHAR
STARTCHAR one
ENCODING 49
SWIDTH 542 0
DWIDTH 13 0
BBX 5 14 3 0
VVECTOR 5 18
SWIDTH1 0 -1222
DWIDTH1 0 -22
BITMAP 
18
18
38
F8
18
18
18
18
18
18
18
18
18
18
ENDCHAR
STARTCHAR two
ENCODING 50
SWIDTH 542 0
DWIDTH 13 0
BBX 11 14 1 0
VVECTOR 7 18
SWIDTH1 0 -1222
DWIDTH1 0 -22
BITMAP 
1F00
7FC0
E0E0
C060
0060
00E0
01C0
0700
0E00
3800
7000
E000
FFE0
FFE0
ENDCHAR
STARTCHAR three
ENCODING 51
SWIDTH 542 0
DWIDTH 13 0
BBX 11 14 1 0
VVECTOR 7 18
SWIDTH1 0 -1222
DWIDTH1 0 -22
BITMAP 
1F00
7FC0
E0E0
C060
0060
00E0
0FC0
0FC0
00E0
0060
C060
E1E0
7FC0
1F00
ENDCHAR
STARTCHAR four
ENCODING 52
SWIDTH 542 0
DWIDTH 13 0
BBX 12 14 1 0
VVECTOR 8 18
SWIDTH1 0 -1222
DWIDTH1 0 -22
BITMAP 
00C0
01C0
03C0
06C0
0CC0
18C0
30C0
60C0
FFF0
FFF0
00C0
00C0
00C0
00C0
ENDCHAR
STARTCHAR five
ENCODING 53
SWIDTH 542 0
DWIDTH 13 0
BBX 11 14 1 0
VVECTOR 7 18
SWIDTH1 0 -1222
DWIDTH1 0 -22
BITMAP 
7FE0
7FE0
6000
6000
C000
FF00
FFC0
E0C0
0060
0060
0060
E0E0
7FC0
1F00
ENDCHAR
STARTCHAR six
ENCODING 54
SWIDTH 542 0
DWIDTH 13 0
BBX 11 14 1 0
VVECTOR 7 18
SWIDTH1 0 -1222
DWIDTH1 0 -22
BITMAP 
1F00
7FC0
E0E0
C000
C000
DF80
FFC0
E0E0
C060
C060
C060
E0E0
7FC0
1F00
ENDCHAR
STARTCHAR seven
ENCODING 55
SWIDTH 542 0
DWIDTH 13 0
BBX 11 14 1 0
VVECTOR 7 18
SWIDTH1 0 -1222
DWIDTH1 0 -22
BITMAP 
FFE0
FFE0
00C0
0180
0300
0300
0600
0C00
0C00
1800
1800
3000
3000
3000
ENDCHAR
STARTCHAR eight
ENCODING 56
SWIDTH 542 0
DWIDTH 13 0
BBX 11 14 1 0
VVECTOR 7 18
SWIDTH1 0 -1222
DWIDTH1 0 -22
BITMAP 
1F00
7FC0
E0E0
C060
C060
60C0
7FC0
7FC0
E0E0
C060
C060
E0E0
7FC0
1F00
ENDCHAR
STARTCHAR nine
ENCODING 57
SWIDTH 542 0
DWIDTH 13 0
BBX 11 14 1 0
VVECTOR 7 18
SWIDTH1 0 -1222
DWIDTH1 0 -22
BITMAP 
1F00
7FC0
E0E0
C060
C060
C060
E0E0
7FE0
3F60
0060
0060
E0E0
7FC0
1F00
ENDCHAR
STARTCHAR colon
ENCODING 58
SWIDTH 250 0
DWIDTH 6 0
BBX 2 9 2 0
VVECTOR 3 18
SWIDTH1 0 -1222
DWIDTH1 0 -22
BITMAP 
C0
C0
00
00
00
00
00
C0
C0
ENDCHAR
STARTCHAR semicolon
ENCODING 59
SWIDTH 250 0
DWIDTH 6 0
BBX 2 11 2 -2
VVECTOR 3 18
SWIDTH1 0 -1222
DWIDTH1 0 -22
BITMAP 
C0
C0
00
00
00
00
00
C0
C0
40
80
ENDCHAR
STARTCHAR less
ENCODING 60
SWIDTH 583 0
DWIDTH 14 0
BBX 12 9 1 1
VVECTOR 7 18
SWIDTH1 0 -1222
DWIDTH1 0 -22
BITMAP 
00F0
03C0
0F00
3C00
F000
3C00
0F00
03C0
00F0
ENDCHAR
STARTCHAR equal
ENCODING 61
SWIDTH 583 0
DWIDTH 14 0
BBX 12 5 1 3
VVECTOR 7 18
SWIDTH1 0 -1222
DWIDTH1 0 -22
BITMAP 
FFF0
0000
0000
0000
FFF0
ENDCHAR
STARTCHAR greater
ENCODING 62
SWIDTH 583 0
DWIDTH 14 0
BBX 12 9 1 1
VVECTOR 7 18
SWIDTH1 0 -1222
DWIDTH1 0 -22
BITMAP 
F000
3C00
0F00
03C0
00F0
03C0
0F00
3C00
F000
ENDCHAR
STARTCHAR question
ENCODING 63
SWIDTH 500 0
DWIDTH 12 0
BBX 10 14 1 0
VVECTOR 6 18
SWIDTH1 0 -1222
DWIDTH1 0 -22
BITMAP 
1E00
7F80
E1C0
C0C0
00C0
0180
0300
0600
0C00
0C00
0C00
0000
0C00
0C00
ENDCHAR
STARTCHAR at
ENCODING 64
SWIDTH 1000 0
DWIDTH 24 0
BBX 22 16 1 -3
VVECTOR 12 18
SWIDTH1 0 -1222
DWIDTH1 0 -22
BITMAP 
01FF80
0700E0
180030
300018
603D88
60E78C
C1C30C
C1830C
C30608
C30618
C38E70
61FBC0
600000
380070
0F03C0
03FF00
ENDCHAR
STARTCHAR A
ENCODING 65
SWIDTH 625 0
DWIDTH 15 0
BBX 15 14 0 0
VVECTOR 8 18
SWIDTH1 0 -1222
DWIDTH1 0 -22
BITMAP 
0380
0380
07C0
06C0
0EE0
0C60
1C70
1830
3FF8
3FF8
701C
600C
E00E
C006
ENDCHAR
STARTCHAR B
ENCODING 66
SWIDTH 667 0
DWIDTH 16 0
BBX 13 14 2 0
VVECTOR 9 18
SWIDTH1 0 -1222
DWIDTH1 0 -22
BITMAP 
FFC0
FFE0
C070
C030
C030
C070
FFE0
FFF0
C038
C018
C018
C038
FFF0
FFE0
ENDCHAR
STARTCHAR C
ENCODING 67
SWIDTH 708 0
DWIDTH 17 0
BBX 16 14 1 0
VVECTOR 10 18
SWIDTH1 0 -1222
DWIDTH1 0 -22
BITMAP 
07F0
1FFC
780F
6003
E000
C000
C000
C000
C000
E000
6003
780F
1FFC
07F0
ENDCHAR
STARTCHAR D
ENCODING 68
SWIDTH 708 0
DWIDTH 17 0
BBX 14 14 2 0
VVECTOR 10 18
SWIDTH1 0 -1222
DWIDTH1 0 -22
BITMAP 
FF80
FFE0
C078
C018
C01C
C00C
C00C
C00C
C00C
C01C
C018
C078
FFE0
FF80
ENDCHAR
STARTCHAR E
ENCODING 69
SWIDTH 667 0
DWIDTH 16 0
BBX 13 14 2 0
VVECTOR 9 18
SWIDTH1 0 -1222
DWIDTH1 0 -22
BITMAP 
FFF8
FFF8
C000
C000
C000
C000
FFF0
FFF0
C000
C000
C000
C000
FFF8
FFF8
ENDCHAR
STARTCHAR F
ENCODING 70
SWIDTH 625 0
DWIDTH 15 0
BBX 13 14 2 0
VVECTOR 10 18
SWIDTH1 0 -1222
DWIDTH1 0 -22
BITMAP 
FFF8
FFF8
C000
C000
C000
C000
FFF0
FFF0
C000
C000
C000
C000
C000
C000
ENDCHAR
STARTCHAR G
ENCODING 71
SWIDTH 750 0
DWIDTH 18 0
BBX 16 14 1 0
VVECTOR 9 18
SWIDTH1 0 -1222
DWIDTH1 0 -22
BITMAP 
07F0
1FFC
780F
6003
E000
C000
C000
C07F
C07F
E003
6003
780F
1FFB
07F1
ENDCHAR
STARTCHAR H
ENCODING 72
SWIDTH 708 0
DWIDTH 17 0
BBX 13 14 2 0
VVECTOR 9 18
SWIDTH1 0 -1222
DWIDTH1 0 -22
BITMAP 
C018
C018
C018
C018
C018
C018
FFF8
FFF8
C018
C018
C018
C018
C018
C018
ENDCHAR
STARTCHAR I
ENCODING 73
SWIDTH 250 0
DWIDTH 6 0
BBX 2 14 2 0
VVECTOR 3 18
SWIDTH1 0 -1222
DWIDTH1 0 -22
BITMAP 
C0
C0
C0
C0
C0
C0
C0
C0
C0
C0
C0
C0
C0
C0
ENDCHAR
STARTCHAR J
ENCODING 74
SWIDTH 500 0
DWIDTH 12 0
BBX 10 14 0 0
VVECTOR 4 18
SWIDTH1 0 -1222
DWIDTH1 0 -22
BITMAP 
00C0
00C0
00C0
00C0
00C0
00C0
00C0
00C0
00C0
C0C0
C0C0
E1C0
7F80
1E00
ENDCHAR
STARTCHAR K
ENCODING 75
SWIDTH 667 0
DWIDTH 16 0
BBX 14 14 2 0
VVECTOR 10 18
SWIDTH1 0 -1222
DWIDTH1 0 -22
BITMAP 
C038
C070
C0E0
C1C0
C380
C700
CE00
DF00
FB80
F1C0
E0E0
C070
C038
C01C
ENDCHAR
STARTCHAR L
ENCODING 76
SWIDTH 542 0
DWIDTH 13 0
BBX 11 14 2 0
VVECTOR 9 18
SWIDTH1 0 -1222
DWIDTH1 0 -22
BITMAP 
C000
C000
C000
C000
C000
C000
C000
C000
C000
C000
C000
C000
FFE0
FFE0
ENDCHAR
STARTCHAR M
ENCODING 77
SWIDTH 833 0
DWIDTH 20 0
BBX 16 14 2 0
VVECTOR 10 18
SWIDTH1 0 -1222
DWIDTH1 0 -22
BITMAP 
E007
F00F
F00F
F81F
D81B
DC3B
CC33
CE73
C663
C7E3
C3C3
C3C3
C183
C183
ENDCHAR
STARTCHAR N
ENCODING 78
SWIDTH 750 0
DWIDTH 18 0
BBX 14 14 2 0
VVECTOR 9 18
SWIDTH1 0 -1222
DWIDTH1 0 -22
BITMAP 
C00C
E00C
F00C
F80C
DC0C
CE0C
C70C
C38C
C1CC
C0EC
C07C
C03C
C01C
C00C
ENDCHAR
STARTCHAR O
ENCODING 79
SWIDTH 792 0
DWIDTH 19 0
BBX 17 14 1 0
VVECTOR 10 18
SWIDTH1 0 -1222
DWIDTH1 0 -22
BITMAP 
07F000
1FFC00
780F00
600300
E00380
C00180
C00180
C00180
C00180
E00380
600300
780F00
1FFC00
07F000
ENDCHAR
STARTCHAR P
ENCODING 80
SWIDTH 667 0
DWIDTH 16 0
BBX 14 14 2 0
VVECTOR 10 18
SWIDTH1 0 -1222
DWIDTH1 0 -22
BITMAP 
FFE0
FFF8
C018
C00C
C00C
C00C
C018
FFF8
FFE0
C000
C000
C000
C000
C000
ENDCHAR
STARTCHAR Q
ENCODING 81
SWIDTH 792 0
DWIDTH 19 0
BBX 17 14 1 0
VVECTOR 10 18
SWIDTH1 0 -1222
DWIDTH1 0 -22
BITMAP 
07F000
1FFC00
780F00
600300
E00380
C00180
C00180
C00180
C00180
E01380
603B00
780F00
1FFF00
07F180
ENDCHAR
STARTCHAR R
ENCODING 82
SWIDTH 708 0
DWIDTH 17 0
BBX 15 14 2 0
VVECTOR 11 18
SWIDTH1 0 -1222
DWIDTH1 0 -22
BITMAP 
FFE0
FFF8
C018
C00C
C00C
C01C
FFF8
FFF8
C01C
C00C
C00C
C00C
C00C
C006
ENDCHAR
STARTCHAR S
ENCODING 83
SWIDTH 667 0
DWIDTH 16 0
BBX 14 14 1 0
VVECTOR 8 18
SWIDTH1 0 -1222
DWIDTH1 0 -22
BITMAP 
1FC0
7FF0
E038
C018
E000
7E00
1FE0
01F8
001C
C00C
C00C
E01C
7FF8
1FE0
ENDCHAR
STARTCHAR T
ENCODING 84
SWIDTH 667 0
DWIDTH 16 0
BBX 16 14 0 0
VVECTOR 8 18
SWIDTH1 0 -1222
DWIDTH1 0 -22
BITMAP 
FFFF
FFFF
0180
0180
0180
0180
0180
0180
0180
0180
0180
0180
0180
0180
ENDCHAR
STARTCHAR U
ENCODING 85
SWIDTH 708 0
DWIDTH 17 0
BBX 13 14 2 0
VVECTOR 9 18
SWIDTH1 0 -1222
DWIDTH1 0 -22
BITMAP 
C018
C018
C018
C018
C018
C018
C018
C018
C018
C018
C018
6030
7FF0
1FC0
ENDCHAR
STARTCHAR V
ENCODING 86
SWIDTH 625 0
DWIDTH 15 0
BBX 15 14 0 0
VVECTOR 8 18
SWIDTH1 0 -1222
DWIDTH1 0 -22
BITMAP 
C006
E00E
600C
701C
3018
3838
1830
1C70
0C60
0EE0
06C0
07C0
0380
0380
ENDCHAR
STARTCHAR W
ENCODING 87
SWIDTH 917 0
DWIDTH 22 0
BBX 22 14 0 0
VVECTOR 11 18
SWIDTH1 0 -1222
DWIDTH1 0 -22
BITMAP 
C0300C
C0300C
607818
607818
70FC38
30CC30
39CE70
198660
198660
1B8760
0F03C0
0F03C0
060180
060180
ENDCHAR
STARTCHAR X
ENCODING 88
SWIDTH 667 0
DWIDTH 16 0
BBX 16 14 0 0
VVECTOR 8 18
SWIDTH1 0 -1222
DWIDTH1 0 -22
BITMAP 
E007
700E
381C
1C38
0E70
07E0
03C0
03C0
07E0
0E70
1C38
381C
700E
E007
ENDCHAR
STARTCHAR Y
ENCODING 89
SWIDTH 667 0
DWIDTH 16 0
BBX 16 14 0 0
VVECTOR 8 18
SWIDTH1 0 -1222
DWIDTH1 0 -22
BITMAP 
E007
700E
381C
1C38
0E70
07E0
03C0
0180
0180
0180
0180
0180
0180
0180
ENDCHAR
STARTCHAR Z
ENCODING 90
SWIDTH 583 0
DWIDTH 14 0
BBX 14 14 0 0
VVECTOR 7 18
SWIDTH1 0 -1222
DWIDTH1 0 -22
BITMAP 
7FFC
7FFC
0038
0070
00E0
01C0
0380
0700
0E00
1C00
3800
7000
FFFC
FFFC
ENDCHAR
STARTCHAR bracketleft
ENCODING 91
SWIDTH 292 0
DWIDTH 7 0
BBX 4 17 2 -3
VVECTOR 5 18
SWIDTH1 0 -1222
DWIDTH1 0 -22
BITMAP 
F0
C0
C0
C0
C0
C0
C0
C0
C0
C0
C0
C0
C0
C0
C0
C0
F0
ENDCHAR
STARTCHAR backslash
ENCODING 92
SWIDTH 292 0
DWIDTH 7 0
BBX 7 14 0 0
VVECTOR 4 18
SWIDTH1 0 -1222
DWIDTH1 0 -22
BITMAP 
C0
C0
60
60
30
30
30
18
18
0C
0C
0C
06
06
ENDCHAR
STARTCHAR bracketright
ENCODING 93
SWIDTH 292 0
DWIDTH 7 0
BBX 4 17 1 -3
VVECTOR 3 18
SWIDTH1 0 -1222
DWIDTH1 0 -22
BITMAP 
F0
30
30
30
30
30
30
30
30
30
30
30
30
30
30
30
F0
ENDCHAR
STARTCHAR asciicircum
ENCODING 94
SWIDTH 458 0
DWIDTH 11 0
BBX 9 4 1 11
VVECTOR 6 18
SWIDTH1 0 -1222
DWIDTH1 0 -22
BITMAP 
1C00
3600
6300
C180
ENDCHAR
STARTCHAR underscore
ENCODING 95
SWIDTH 542 0
DWIDTH 13 0
BBX 13 1 0 -2
VVECTOR 7 18
SWIDTH1 0 -1222
DWIDTH1 0 -22
BITMAP 
FFF8
ENDCHAR
STARTCHAR grave
ENCODING 96
SWIDTH 333 0
DWIDTH 8 0
BBX 6 3 1 11
VVECTOR 4 18
SWIDTH1 0 -1222
DWIDTH1 0 -22
BITMAP 
F0
38
0C
ENDCHAR
STARTCHAR a
ENCODING 97
SWIDTH 542 0
DWIDTH 13 0
BBX 11 10 1 0
VVECTOR 7 18
SWIDTH1 0 -1222
DWIDTH1 0 -22
BITMAP 
1F00
7F80
61C0
00C0
3FC0
7FC0
C0C0
C1C0
7FC0
3EE0
ENDCHAR
STARTCHAR b
ENCODING 98
SWIDTH 583 0
DWIDTH 14 0
BBX 11 14 2 0
VVECTOR 8 18
SWIDTH1 0 -1222
DWIDTH1 0 -22
BITMAP 
C000
C000
C000
C000
DF00
FFC0
E0C0
C060
C060
C060
C060
E0C0
FFC0
DF00
ENDCHAR
STARTCHAR c
ENCODING 99
SWIDTH 542 0
DWIDTH 13 0
BBX 11 10 1 0
VVECTOR 7 18
SWIDTH1 0 -1222
DWIDTH1 0 -22
BITMAP 
1F80
7FE0
6060
C000
C000
C000
C000
6060
7FE0
1F80
ENDCHAR
STARTCHAR d
ENCODING 100
SWIDTH 583 0
DWIDTH 14 0
BBX 11 14 1 0
VVECTOR 6 18
SWIDTH1 0 -1222
DWIDTH1 0 -22
BITMAP 
0060
0060
0060
0060
1F60
7FE0
60E0
C060
C060
C060
C060
60E0
7FE0
1F60
ENDCHAR
STARTCHAR e
ENCODING 101
SWIDTH 542 0
DWIDTH 13 0
BBX 11 10 1 0
VVECTOR 7 18
SWIDTH1 0 -1222
DWIDTH1 0 -22
BITMAP 
1F00
7FC0
60C0
C060
FFE0
FFE0
C000
6060
7FE0
1F80
ENDCHAR
STARTCHAR f
ENCODING 102
SWIDTH 250 0
DWIDTH 6 0
BBX 6 14 0 0
VVECTOR 3 18
SWIDTH1 0 -1222
DWIDTH1 0 -22
BITMAP 
1C
3C
30
30
FC
FC
30
30
30
30
30
30
30
30
ENDCHAR
STARTCHAR g
ENCODING 103
SWIDTH 542 0
DWIDTH 13 0
BBX 11 14 1 -4
VVECTOR 7 18
SWIDTH1 0 -1222
DWIDTH1 0 -22
BITMAP 
1F60
7FE0
60E0
C060
C060
C060
C060
60E0
7FE0
1F60
0060
60E0
7FE0
1F80
ENDCHAR
STARTCHAR h
ENCODING 104
SWIDTH 500 0
DWIDTH 12 0
BBX 10 14 1 0
VVECTOR 6 18
SWIDTH1 0 -1222
DWIDTH1 0 -22
BITMAP 
C000
C000
C000
C000
DF00
FF80
E1C0
C0C0
C0C0
C0C0
C0C0
C0C0
C0C0
C0C0
ENDCHAR
STARTCHAR i
ENCODING 105
SWIDTH 250 0
DWIDTH 6 0
BBX 2 14 2 0
VVECTOR 3 18
SWIDTH1 0 -1222
DWIDTH1 0 -22
BITMAP 
C0
C0
00
00
C0
C0
C0
C0
C0
C0
C0
C0
C0
C0
ENDCHAR
STARTCHAR j
ENCODING 106
SWIDTH 250 0
DWIDTH 6 0
BBX 4 18 0 -4
VVECTOR 1 18
SWIDTH1 0 -1222
DWIDTH1 0 -22
BITMAP 
30
30
00
00
30
30
30
30
30
30
30
30
30
30
30
30
30
E0
ENDCHAR
STARTCHAR k
ENCODING 107
SWIDTH 500 0
DWIDTH 12 0
BBX 10 14 2 0
VVECTOR 8 18
SWIDTH1 0 -1222
DWIDTH1 0 -22
BITMAP 
C000
C000
C000
C000
C1C0
C380
C700
CE00
DC00
FC00
EE00
C700
C380
C1C0
ENDCHAR
STARTCHAR l
ENCODING 108
SWIDTH 250 0
DWIDTH 6 0
BBX 2 14 2 0
VVECTOR 3 18
SWIDTH1 0 -1222
DWIDTH1 0 -22
BITMAP 
C0
C0
C0
C0
C0
C0
C0
C0
C0
C0
C0
C0
C0
C0
ENDCHAR
STARTCHAR m
ENCODING 109
SWIDTH 833 0
DWIDTH 20 0
BBX 16 10 2 0
VVECTOR 10 18
SWIDTH1 0 -1222
DWIDTH1 0 -22
BITMAP 
DE3C
FF7E
E3C7
C183
C183
C183
C183
C183
C183
C183
ENDCHAR
STARTCHAR n
ENCODING 110
SWIDTH 500 0
DWIDTH 12 0
BBX 10 10 1 0
VVECTOR 6 18
SWIDTH1 0 -1222
DWIDTH1 0 -22
BITMAP 
DE00
FF80
E1C0
C0C0
C0C0
C0C0
C0C0
C0C0
C0C0
C0C0
ENDCHAR
STARTCHAR o
ENCODING 111
SWIDTH 583 0
DWIDTH 14 0
BBX 12 10 1 0
VVECTOR 7 18
SWIDTH1 0 -1222
DWIDTH1 0 -22
BITMAP 
1F80
7FE0
6060
C030
C030
C030
C030
6060
7FE0
1F80
ENDCHAR
STARTCHAR p
ENCODING 112
SWIDTH 583 0
DWIDTH 14 0
BBX 11 14 2 -4
VVECTOR 8 18
SWIDTH1 0 -1222
DWIDTH1 0 -22
BITMAP 
DF00
FFC0
E0C0
C060
C060
C060
C060
E0C0
FFC0
DF00
C000
C000
C000
C000
ENDCHAR
STARTCHAR q
ENCODING 113
SWIDTH 583 0
DWIDTH 14 0
BBX 11 14 1 -4
VVECTOR 6 18
SWIDTH1 0 -1222
DWIDTH1 0 -22
BITMAP 
1F60
7FE0
60E0
C060
C060
C060
C060
60E0
7FE0
1F60
0060
0060
0060
0060
ENDCHAR
STARTCHAR r
ENCODING 114
SWIDTH 333 0
DWIDTH 8 0
BBX 6 10 2 0
VVECTOR 6 18
SWIDTH1 0 -1222
DWIDTH1 0 -22
BITMAP 
DC
FC
E0
C0
C0
C0
C0
C0
C0
C0
ENDCHAR
STARTCHAR s
ENCODING 115
SWIDTH 458 0
DWIDTH 11 0
BBX 9 10 1 0
VVECTOR 6 18
SWIDTH1 0 -1222
DWIDTH1 0 -22
BITMAP 
3E00
7F80
C180
E000
7C00
0F00
0380
C180
FF80
3E00
ENDCHAR
STARTCHAR t
ENCODING 116
SWIDTH 250 0
DWIDTH 6 0
BBX 6 13 0 0
VVECTOR 3 18
SWIDTH1 0 -1222
DWIDTH1 0 -22
BITMAP 
30
30
30
FC
FC
30
30
30
30
30
30
38
1C
ENDCHAR
STARTCHAR u
ENCODING 117
SWIDTH 542 0
DWIDTH 13 0
BBX 9 10 2 0
VVECTOR 7 18
SWIDTH1 0 -1222
DWIDTH1 0 -22
BITMAP 
C180
C180
C180
C180
C180
C180
C180
E380
7F80
3D80
ENDCHAR
STARTCHAR v
ENCODING 118
SWIDTH 458 0
DWIDTH 11 0
BBX 11 10 0 0
VVECTOR 6 18
SWIDTH1 0 -1222
DWIDTH1 0 -22
BITMAP 
C060
E0E0
60C0
71C0
3180
3B80
1B00
1F00
0E00
0E00
ENDCHAR
STARTCHAR w
ENCODING 119
SWIDTH 750 0
DWIDTH 18 0
BBX 18 10 0 0
VVECTOR 9 18
SWIDTH1 0 -1222
DWIDTH1 0 -22
BITMAP 
C0C0C0
E1E1C0
61E180
73F380
333300
3F3F00
1E1E00
1E1E00
0C0C00
0C0C00
ENDCHAR
STARTCHAR x
ENCODING 120
SWIDTH 458 0
DWIDTH 11 0
BBX 11 10 0 0
VVECTOR 6 18
SWIDTH1 0 -1222
DWIDTH1 0 -22
BITMAP 
E0E0
71C0
3B80
1F00
0E00
0E00
1F00
3B80
71C0
E0E0
ENDCHAR
STARTCHAR y
ENCODING 121
SWIDTH 458 0
DWIDTH 11 0
BBX 11 14 0 -4
VVECTOR 6 18
SWIDTH1 0 -1222
DWIDTH1 0 -22
BITMAP 
C060
E0E0
60C0
71C0
3180
3B80
1B00
1F00
0E00
0E00
0C00
0C00
1800
7800
ENDCHAR
STARTCHAR z
ENCODING 122
SWIDTH 458 0
DWIDTH 11 0
BBX 10 10 0 0
VVECTOR 5 18
SWIDTH1 0 -1222
DWIDTH1 0 -22
BITMAP 
FFC0
FFC0
0380
0700
0E00
1C00
3800
7000
FFC0
FFC0
ENDCHAR
STARTCHAR braceleft
ENCODING 123
SWIDTH 333 0
DWIDTH 8 0
BBX 6 17 1 -3
VVECTOR 4 18
SWIDTH1 0 -1222
DWIDTH1 0 -22
BITMAP 
1C
38
30
30
30
30
30
70
E0
70
30
30
30
30
30
38
1C
ENDCHAR
STARTCHAR bar
ENCODING 124
SWIDTH 250 0
DWIDTH 6 0
BBX 2 15 2 -1
VVECTOR 3 18
SWIDTH1 0 -1222
DWIDTH1 0 -22
BITMAP 
C0
C0
C0
C0
C0
C0
C0
C0
C0
C0
C0
C0
C0
C0
C0
ENDCHAR
STARTCHAR braceright
ENCODING 125
SWIDTH 333 0
DWIDTH 8 0
BBX 6 17 1 -3
VVECTOR 4 18
SWIDTH1 0 -1222
DWIDTH1 0 -22
BITMAP 
E0
70
30
30
30
30
30
38
1C
38
30
30
30
30
30
70
E0
ENDCHAR
STARTCHAR asciitilde
ENCODING 126
SWIDTH 583 0
DWIDTH 14 0
BBX 10 3 2 11
VVECTOR 7 18
SWIDTH1 0 -1222
DWIDTH1 0 -22
BITMAP 
7840
CCC0
8780
ENDCHAR
STARTCHAR uni007F
ENCODING 127
SWIDTH 333 0
DWIDTH 8 0
BBX 4 14 2 0
VVECTOR 4 18
SWIDTH1 0 -1222
DWIDTH1 0 -22
BITMAP 
F0
F0
F0
F0
F0
F0
F0
F0
F0
F0
F0
F0
F0
F0
ENDCHAR
STARTCHAR char80
ENCODING 128
SWIDTH 333 0
DWIDTH 8 0
BBX 4 14 2 0
VVECTOR 4 18
SWIDTH1 0 -1222
DWIDTH1 0 -22
BITMAP 
F0
F0
F0
F0
F0
F0
F0
F0
F0
F0
F0
F0
F0
F0
ENDCHAR
STARTCHAR char81
ENCODING 129
SWIDTH 333 0
DWIDTH 8 0
BBX 4 14 2 0
VVECTOR 4 18
SWIDTH1 0 -1222
DWIDTH1 0 -22
BITMAP 
F0
F0
F0
F0
F0
F0
F0
F0
F0
F0
F0
F0
F0
F0
ENDCHAR
STARTCHAR char82
ENCODING 130
SWIDTH 333 0
DWIDTH 8 0
BBX 4 14 2 0
VVECTOR 4 18
SWIDTH1 0 -1222
DWIDTH1 0 -22
BITMAP 
F0
F0
F0
F0
F0
F0
F0
F0
F0
F0
F0
F0
F0
F0
ENDCHAR
STARTCHAR char83
ENCODING 131
SWIDTH 333 0
DWIDTH 8 0
BBX 4 14 2 0
VVECTOR 4 18
SWIDTH1 0 -1222
DWIDTH1 0 -22
BITMAP 
F0
F0
F0
F0
F0
F0
F0
F0
F0
F0
F0
F0
F0
F0
ENDCHAR
STARTCHAR char84
ENCODING 132
SWIDTH 333 0
DWIDTH 8 0
BBX 4 14 2 0
VVECTOR 4 18
SWIDTH1 0 -1222
DWIDTH1 0 -22
BITMAP 
F0
F0
F0
F0
F0
F0
F0
F0
F0
F0
F0
F0
F0
F0
ENDCHAR
STARTCHAR char85
ENCODING 133
SWIDTH 333 0
DWIDTH 8 0
BBX 4 14 2 0
VVECTOR 4 18
SWIDTH1 0 -1222
DWIDTH1 0 -22
BITMAP 
F0
F0
F0
F0
F0
F0
F0
F0
F0
F0
F0
F0
F0
F0
ENDCHAR
STARTCHAR char86
ENCODING 134
SWIDTH 333 0
DWIDTH 8 0
BBX 4 14 2 0
VVECTOR 4 18
SWIDTH1 0 -1222
DWIDTH1 0 -22
BITMAP 
F0
F0
F0
F0
F0
F0
F0
F0
F0
F0
F0
F0
F0
F0
ENDCHAR
STARTCHAR char87
ENCODING 135
SWIDTH 333 0
DWIDTH 8 0
BBX 4 14 2 0
VVECTOR 4 18
SWIDTH1 0 -1222
DWIDTH1 0 -22
BITMAP 
F0
F0
F0
F0
F0
F0
F0
F0
F0
F0
F0
F0
F0
F0
ENDCHAR
STARTCHAR char88
ENCODING 136
SWIDTH 333 0
DWIDTH 8 0
BBX 4 14 2 0
VVECTOR 4 18
SWIDTH1 0 -1222
DWIDTH1 0 -22
BITMAP 
F0
F0
F0
F0
F0
F0
F0
F0
F0
F0
F0
F0
F0
F0
ENDCHAR
STARTCHAR char89
ENCODING 137
SWIDTH 333 0
DWIDTH 8 0
BBX 4 14 2 0
VVECTOR 4 18
SWIDTH1 0 -1222
DWIDTH1 0 -22
BITMAP 
F0
F0
F0
F0
F0
F0
F0
F0
F0
F0
F0
F0
F0
F0
ENDCHAR
STARTCHAR char8A
ENCODING 138
SWIDTH 333 0
DWIDTH 8 0
BBX 4 14 2 0
VVECTOR 4 18
SWIDTH1 0 -1222
DWIDTH1 0 -22
BITMAP 
F0
F0
F0
F0
F0
F0
F0
F0
F0
F0
F0
F0
F0
F0
ENDCHAR
STARTCHAR char8B
ENCODING 139
SWIDTH 333 0
DWIDTH 8 0
BBX 4 14 2 0
VVECTOR 4 18
SWIDTH1 0 -1222
DWIDTH1 0 -22
BITMAP 
F0
F0
F0
F0
F0
F0
F0
F0
F0
F0
F0
F0
F0
F0
ENDCHAR
STARTCHAR char8C
ENCODING 140
SWIDTH 333 0
DWIDTH 8 0
BBX 4 14 2 0
VVECTOR 4 18
SWIDTH1 0 -1222
DWIDTH1 0 -22
BITMAP 
F0
F0
F0
F0
F0
F0
F0
F0
F0
F0
F0
F0
F0
F0
ENDCHAR
STARTCHAR char8D
ENCODING 141
SWIDTH 333 0
DWIDTH 8 0
BBX 4 14 2 0
VVECTOR 4 18
SWIDTH1 0 -1222
DWIDTH1 0 -22
BITMAP 
F0
F0
F0
F0
F0
F0
F0
F0
F0
F0
F0
F0
F0
F0
ENDCHAR
STARTCHAR char8E
ENCODING 142
SWIDTH 333 0
DWIDTH 8 0
BBX 4 14 2 0
VVECTOR 4 18
SWIDTH1 0 -1222
DWIDTH1 0 -22
BITMAP 
F0
F0
F0
F0
F0
F0
F0
F0
F0
F0
F0
F0
F0
F0
ENDCHAR
STARTCHAR char8F
ENCODING 143
SWIDTH 333 0
DWIDTH 8 0
BBX 4 14 2 0
VVECTOR 4 18
SWIDTH1 0 -1222
DWIDTH1 0 -22
BITMAP 
F0
F0
F0
F0
F0
F0
F0
F0
F0
F0
F0
F0
F0
F0
ENDCHAR
STARTCHAR char90
ENCODING 144
SWIDTH 333 0
DWIDTH 8 0
BBX 4 14 2 0
VVECTOR 4 18
SWIDTH1 0 -1222
DWIDTH1 0 -22
BITMAP 
F0
F0
F0
F0
F0
F0
F0
F0
F0
F0
F0
F0
F0
F0
ENDCHAR
STARTCHAR quoteleft
ENCODING 145
SWIDTH 250 0
DWIDTH 6 0
BBX 2 4 2 10
VVECTOR 3 18
SWIDTH1 0 -1222
DWIDTH1 0 -22
BITMAP 
40
80
C0
C0
ENDCHAR
STARTCHAR quoteright
ENCODING 146
SWIDTH 250 0
DWIDTH 6 0
BBX 2 4 2 10
VVECTOR 3 18
SWIDTH1 0 -1222
DWIDTH1 0 -22
BITMAP 
C0
C0
40
80
ENDCHAR
STARTCHAR char93
ENCODING 147
SWIDTH 333 0
DWIDTH 8 0
BBX 4 14 2 0
VVECTOR 4 18
SWIDTH1 0 -1222
DWIDTH1 0 -22
BITMAP 
F0
F0
F0
F0
F0
F0
F0
F0
F0
F0
F0
F0
F0
F0
ENDCHAR
STARTCHAR char94
ENCODING 148
SWIDTH 333 0
DWIDTH 8 0
BBX 4 14 2 0
VVECTOR 4 18
SWIDTH1 0 -1222
DWIDTH1 0 -22
BITMAP 
F0
F0
F0
F0
F0
F0
F0
F0
F0
F0
F0
F0
F0
F0
ENDCHAR
STARTCHAR char95
ENCODING 149
SWIDTH 333 0
DWIDTH 8 0
BBX 4 14 2 0
VVECTOR 4 18
SWIDTH1 0 -1222
DWIDTH1 0 -22
BITMAP 
F0
F0
F0
F0
F0
F0
F0
F0
F0
F0
F0
F0
F0
F0
ENDCHAR
STARTCHAR char96
ENCODING 150
SWIDTH 333 0
DWIDTH 8 0
BBX 4 14 2 0
VVECTOR 4 18
SWIDTH1 0 -1222
DWIDTH1 0 -22
BITMAP 
F0
F0
F0
F0
F0
F0
F0
F0
F0
F0
F0
F0
F0
F0
ENDCHAR
STARTCHAR char97
ENCODING 151
SWIDTH 333 0
DWIDTH 8 0
BBX 4 14 2 0
VVECTOR 4 18
SWIDTH1 0 -1222
DWIDTH1 0 -22
BITMAP 
F0
F0
F0
F0
F0
F0
F0
F0
F0
F0
F0
F0
F0
F0
ENDCHAR
STARTCHAR char98
ENCODING 152
SWIDTH 333 0
DWIDTH 8 0
BBX 4 14 2 0
VVECTOR 4 18
SWIDTH1 0 -1222
DWIDTH1 0 -22
BITMAP 
F0
F0
F0
F0
F0
F0
F0
F0
F0
F0
F0
F0
F0
F0
ENDCHAR
STARTCHAR char99
ENCODING 153
SWIDTH 333 0
DWIDTH 8 0
BBX 4 14 2 0
VVECTOR 4 18
SWIDTH1 0 -1222
DWIDTH1 0 -22
BITMAP 
F0
F0
F0
F0
F0
F0
F0
F0
F0
F0
F0
F0
F0
F0
ENDCHAR
STARTCHAR char9A
ENCODING 154
SWIDTH 333 0
DWIDTH 8 0
BBX 4 14 2 0
VVECTOR 4 18
SWIDTH1 0 -1222
DWIDTH1 0 -22
BITMAP 
F0
F0
F0
F0
F0
F0
F0
F0
F0
F0
F0
F0
F0
F0
ENDCHAR
STARTCHAR char9B
ENCODING 155
SWIDTH 333 0
DWIDTH 8 0
BBX 4 14 2 0
VVECTOR 4 18
SWIDTH1 0 -1222
DWIDTH1 0 -22
BITMAP 
F0
F0
F0
F0
F0
F0
F0
F0
F0
F0
F0
F0
F0
F0
ENDCHAR
STARTCHAR char9C
ENCODING 156
SWIDTH 333 0
DWIDTH 8 0
BBX 4 14 2 0
VVECTOR 4 18
SWIDTH1 0 -1222
DWIDTH1 0 -22
BITMAP 
F0
F0
F0
F0
F0
F0
F0
F0
F0
F0
F0
F0
F0
F0
ENDCHAR
STARTCHAR char9D
ENCODING 157
SWIDTH 333 0
DWIDTH 8 0
BBX 4 14 2 0
VVECTOR 4 18
SWIDTH1 0 -1222
DWIDTH1 0 -22
BITMAP 
F0
F0
F0
F0
F0
F0
F0
F0
F0
F0
F0
F0
F0
F0
ENDCHAR
STARTCHAR char9E
ENCODING 158
SWIDTH 333 0
DWIDTH 8 0
BBX 4 14 2 0
VVECTOR 4 18
SWIDTH1 0 -1222
DWIDTH1 0 -22
BITMAP 
F0
F0
F0
F0
F0
F0
F0
F0
F0
F0
F0
F0
F0
F0
ENDCHAR
STARTCHAR char9F
ENCODING 159
SWIDTH 333 0
DWIDTH 8 0
BBX 4 14 2 0
VVECTOR 4 18
SWIDTH1 0 -1222
DWIDTH1 0 -22
BITMAP 
F0
F0
F0
F0
F0
F0
F0
F0
F0
F0
F0
F0
F0
F0
ENDCHAR
STARTCHAR uni00A0
ENCODING 160
SWIDTH 250 0
DWIDTH 6 0
BBX 0 0 6 18
VVECTOR 9 18
SWIDTH1 0 -1222
DWIDTH1 0 -22
BITMAP 
ENDCHAR
STARTCHAR exclamdown
ENCODING 161
SWIDTH 250 0
DWIDTH 6 0
BBX 2 14 2 -3
VVECTOR 3 18
SWIDTH1 0 -1222
DWIDTH1 0 -22
BITMAP 
C0
C0
00
C0
C0
C0
C0
C0
C0
C0
C0
C0
C0
C0
ENDCHAR
STARTCHAR cent
ENCODING 162
SWIDTH 542 0
DWIDTH 13 0
BBX 11 14 1 -2
VVECTOR 7 18
SWIDTH1 0 -1222
DWIDTH1 0 -22
BITMAP 
0040
0040
1F80
7FE0
6160
C100
C200
C200
C400
6460
7FE0
1F80
1000
1000
ENDCHAR
STARTCHAR sterling
ENCODING 163
SWIDTH 542 0
DWIDTH 13 0
BBX 11 14 1 0
VVECTOR 7 18
SWIDTH1 0 -1222
DWIDTH1 0 -22
BITMAP 
1F00
7FC0
E0E0
C000
E000
6000
FE00
3000
3000
3000
3000
7E00
FFE0
83C0
ENDCHAR
STARTCHAR currency
ENCODING 164
SWIDTH 542 0
DWIDTH 13 0
BBX 11 9 1 5
VVECTOR 7 18
SWIDTH1 0 -1222
DWIDTH1 0 -22
BITMAP 
C060
6EC0
3F80
71C0
60C0
71C0
3F80
6EC0
C060
ENDCHAR
STARTCHAR yen
ENCODING 165
SWIDTH 542 0
DWIDTH 13 0
BBX 13 14 0 0
VVECTOR 7 18
SWIDTH1 0 -1222
DWIDTH1 0 -22
BITMAP 
8018
C038
E070
70E0
39C0
FFF0
0F00
0600
FFF0
0600
0600
0600
0600
0600
ENDCHAR
STARTCHAR brokenbar
ENCODING 166
SWIDTH 250 0
DWIDTH 6 0
BBX 2 17 2 -3
VVECTOR 3 18
SWIDTH1 0 -1222
DWIDTH1 0 -22
BITMAP 
C0
C0
C0
C0
C0
C0
C0
00
00
00
C0
C0
C0
C0
C0
C0
C0
ENDCHAR
STARTCHAR section
ENCODING 167
SWIDTH 542 0
DWIDTH 13 0
BBX 11 16 1 -2
VVECTOR 7 18
SWIDTH1 0 -1222
DWIDTH1 0 -22
BITMAP 
1F00
7FC0
60C0
7000
3800
7E00
C780
E1C0
70E0
3C60
0FC0
0380
01C0
60C0
7FC0
1F00
ENDCHAR
STARTCHAR dieresis
ENCODING 168
SWIDTH 333 0
DWIDTH 8 0
BBX 6 2 1 12
VVECTOR 4 18
SWIDTH1 0 -1222
DWIDTH1 0 -22
BITMAP 
CC
CC
ENDCHAR
STARTCHAR copyright
ENCODING 169
SWIDTH 833 0
DWIDTH 20 0
BBX 16 12 1 1
VVECTOR 8 18
SWIDTH1 0 -1222
DWIDTH1 0 -22
BITMAP 
07E0
1818
63E6
4632
CC03
8C01
8C01
C633
43E2
6006
1818
07E0
ENDCHAR
STARTCHAR ordfeminine
ENCODING 170
SWIDTH 333 0
DWIDTH 8 0
BBX 8 9 0 5
VVECTOR 4 18
SWIDTH1 0 -1222
DWIDTH1 0 -22
BITMAP 
7C
C6
0E
76
C6
CE
7B
00
FF
ENDCHAR
STARTCHAR guillemotleft
ENCODING 171
SWIDTH 542 0
DWIDTH 13 0
BBX 11 7 1 2
VVECTOR 7 18
SWIDTH1 0 -1222
DWIDTH1 0 -22
BITMAP 
18E0
39C0
7380
E700
7380
39C0
1CE0
ENDCHAR
STARTCHAR logicalnot
ENCODING 172
SWIDTH 583 0
DWIDTH 14 0
BBX 12 4 1 3
VVECTOR 7 18
SWIDTH1 0 -1222
DWIDTH1 0 -22
BITMAP 
FFF0
0030
0030
0030
ENDCHAR
STARTCHAR uni00AD
ENCODING 173
SWIDTH 333 0
DWIDTH 8 0
BBX 6 2 1 4
VVECTOR 4 18
SWIDTH1 0 -1222
DWIDTH1 0 -22
BITMAP 
FC
FC
ENDCHAR
STARTCHAR registered
ENCODING 174
SWIDTH 833 0
DWIDTH 20 0
BBX 16 12 1 1
VVECTOR 8 18
SWIDTH1 0 -1222
DWIDTH1 0 -22
BITMAP 
07E0
1818
67E6
4632
C633
87E1
8631
C633
4632
6006
1818
07E0
ENDCHAR
STARTCHAR macron
ENCODING 175
SWIDTH 542 0
DWIDTH 13 0
BBX 13 2 0 14
VVECTOR 7 18
SWIDTH1 0 -1222
DWIDTH1 0 -22
BITMAP 
FFF8
FFF8
ENDCHAR
STARTCHAR degree
ENCODING 176
SWIDTH 333 0
DWIDTH 8 0
BBX 6 4 1 10
VVECTOR 4 18
SWIDTH1 0 -1222
DWIDTH1 0 -22
BITMAP 
78
CC
CC
78
ENDCHAR
STARTCHAR plusminus
ENCODING 177
SWIDTH 583 0
DWIDTH 14 0
BBX 12 11 1 0
VVECTOR 7 18
SWIDTH1 0 -1222
DWIDTH1 0 -22
BITMAP 
0600
0600
0600
0600
FFF0
0600
0600
0600
0600
0000
FFF0
ENDCHAR
STARTCHAR uni00B2
ENCODING 178
SWIDTH 292 0
DWIDTH 7 0
BBX 5 7 1 7
VVECTOR 4 18
SWIDTH1 0 -1222
DWIDTH1 0 -22
BITMAP 
70
D8
18
30
60
C0
F8
ENDCHAR
STARTCHAR uni00B3
ENCODING 179
SWIDTH 292 0
DWIDTH 7 0
BBX 5 7 1 7
VVECTOR 4 18
SWIDTH1 0 -1222
DWIDTH1 0 -22
BITMAP 
70
D8
18
70
18
D8
70
ENDCHAR
STARTCHAR acute
ENCODING 180
SWIDTH 333 0
DWIDTH 8 0
BBX 6 3 1 11
VVECTOR 4 18
SWIDTH1 0 -1222
DWIDTH1 0 -22
BITMAP 
3C
70
C0
ENDCHAR
STARTCHAR mu
ENCODING 181
SWIDTH 500 0
DWIDTH 12 0
BBX 11 13 1 -4
VVECTOR 7 18
SWIDTH1 0 -1222
DWIDTH1 0 -22
BITMAP 
C180
C180
C180
C180
C180
C180
C180
E380
FEE0
C000
C000
C000
C000
ENDCHAR
STARTCHAR paragraph
ENCODING 182
SWIDTH 500 0
DWIDTH 12 0
BBX 10 14 1 -1
VVECTOR 6 18
SWIDTH1 0 -1222
DWIDTH1 0 -22
BITMAP 
3FC0
7D80
FD80
FD80
FD80
7D80
3D80
0D80
0D80
0D80
0D80
0D80
0D80
0D80
ENDCHAR
STARTCHAR periodcentered
ENCODING 183
SWIDTH 250 0
DWIDTH 6 0
BBX 2 2 2 6
VVECTOR 3 18
SWIDTH1 0 -1222
DWIDTH1 0 -22
BITMAP 
C0
C0
ENDCHAR
STARTCHAR cedilla
ENCODING 184
SWIDTH 333 0
DWIDTH 8 0
BBX 5 4 2 -4
VVECTOR 5 18
SWIDTH1 0 -1222
DWIDTH1 0 -22
BITMAP 
40
70
18
F0
ENDCHAR
STARTCHAR uni00B9
ENCODING 185
SWIDTH 292 0
DWIDTH 7 0
BBX 4 7 1 7
VVECTOR 3 18
SWIDTH1 0 -1222
DWIDTH1 0 -22
BITMAP 
30
F0
30
30
30
30
30
ENDCHAR
STARTCHAR ordmasculine
ENCODING 186
SWIDTH 333 0
DWIDTH 8 0
BBX 8 9 0 5
VVECTOR 4 18
SWIDTH1 0 -1222
DWIDTH1 0 -22
BITMAP 
3C
66
C3
C3
C3
66
3C
00
FF
ENDCHAR
STARTCHAR guillemotright
ENCODING 187
SWIDTH 542 0
DWIDTH 13 0
BBX 12 7 1 2
VVECTOR 8 18
SWIDTH1 0 -1222
DWIDTH1 0 -22
BITMAP 
E380
71C0
38E0
1C70
38E0
71C0
E380
ENDCHAR
STARTCHAR onequarter
ENCODING 188
SWIDTH 708 0
DWIDTH 17 0
BBX 15 14 1 0
VVECTOR 9 18
SWIDTH1 0 -1222
DWIDTH1 0 -22
BITMAP 
3006
F00C
3018
3030
3060
30C0
3180
030C
061C
0C3C
186C
30FC
600C
C00C
ENDCHAR
STARTCHAR onehalf
ENCODING 189
SWIDTH 708 0
DWIDTH 17 0
BBX 15 14 1 0
VVECTOR 9 18
SWIDTH1 0 -1222
DWIDTH1 0 -22
BITMAP 
3006
F00C
3018
3030
3060
30C0
3180
0338
066C
0C0C
1818
3030
6060
C07C
ENDCHAR
STARTCHAR threequarters
ENCODING 190
SWIDTH 708 0
DWIDTH 17 0
BBX 15 14 1 0
VVECTOR 9 18
SWIDTH1 0 -1222
DWIDTH1 0 -22
BITMAP 
7006
D80C
1818
7030
1860
D8C0
7180
030C
061C
0C3C
186C
30FC
600C
C00C
ENDCHAR
STARTCHAR questiondown
ENCODING 191
SWIDTH 500 0
DWIDTH 12 0
BBX 10 14 1 -3
VVECTOR 6 18
SWIDTH1 0 -1222
DWIDTH1 0 -22
BITMAP 
0C00
0C00
0000
0C00
0C00
0C00
1800
3000
6000
C000
C0C0
E1C0
7F80
1E00
ENDCHAR
STARTCHAR Agrave
ENCODING 192
SWIDTH 625 0
DWIDTH 15 0
BBX 15 18 0 0
VVECTOR 8 18
SWIDTH1 0 -1222
DWIDTH1 0 -22
BITMAP 
1E00
0700
0180
0000
0380
0380
07C0
06C0
0EE0
0C60
1C70
1830
3FF8
3FF8
701C
600C
E00E
C006
ENDCHAR
STARTCHAR Aacute
ENCODING 193
SWIDTH 625 0
DWIDTH 15 0
BBX 15 18 0 0
VVECTOR 8 18
SWIDTH1 0 -1222
DWIDTH1 0 -22
BITMAP 
00F0
01C0
0300
0000
0380
0380
07C0
06C0
0EE0
0C60
1C70
1830
3FF8
3FF8
701C
600C
E00E
C006
ENDCHAR
STARTCHAR Acircumflex
ENCODING 194
SWIDTH 625 0
DWIDTH 15 0
BBX 15 18 0 0
VVECTOR 8 18
SWIDTH1 0 -1222
DWIDTH1 0 -22
BITMAP 
07C0
0EE0
1830
0000
0380
0380
07C0
06C0
0EE0
0C60
1C70
1830
3FF8
3FF8
701C
600C
E00E
C006
ENDCHAR
STARTCHAR Atilde
ENCODING 195
SWIDTH 625 0
DWIDTH 15 0
BBX 15 18 0 0
VVECTOR 8 18
SWIDTH1 0 -1222
DWIDTH1 0 -22
BITMAP 
1E08
3398
20F0
0000
0380
0380
07C0
06C0
0EE0
0C60
1C70
1830
3FF8
3FF8
701C
600C
E00E
C006
ENDCHAR
STARTCHAR Adieresis
ENCODING 196
SWIDTH 625 0
DWIDTH 15 0
BBX 15 18 0 0
VVECTOR 8 18
SWIDTH1 0 -1222
DWIDTH1 0 -22
BITMAP 
0C60
0C60
0000
0000
0380
0380
07C0
06C0
0EE0
0C60
1C70
1830
3FF8
3FF8
701C
600C
E00E
C006
ENDCHAR
STARTCHAR Aring
ENCODING 197
SWIDTH 625 0
DWIDTH 15 0
BBX 15 18 0 0
VVECTOR 8 18
SWIDTH1 0 -1222
DWIDTH1 0 -22
BITMAP 
07C0
0C60
0C60
07C0
0380
0380
07C0
06C0
0EE0
0C60
1C70
1830
3FF8
3FF8
701C
600C
E00E
C006
ENDCHAR
STARTCHAR AE
ENCODING 198
SWIDTH 1000 0
DWIDTH 24 0
BBX 23 14 0 0
VVECTOR 11 18
SWIDTH1 0 -1222
DWIDTH1 0 -22
BITMAP 
01FFFE
03FFFE
033000
063000
063000
0C3000
0C3FFC
183FFC
1FF000
3FF000
303000
703000
603FFE
E03FFE
ENDCHAR
STARTCHAR Ccedilla
ENCODING 199
SWIDTH 708 0
DWIDTH 17 0
BBX 16 18 1 -4
VVECTOR 10 18
SWIDTH1 0 -1222
DWIDTH1 0 -22
BITMAP 
07F0
1FFC
780F
6003
E000
C000
C000
C000
C000
E000
6003
780F
1FFC
07F0
0080
00E0
0030
01E0
ENDCHAR
STARTCHAR Egrave
ENCODING 200
SWIDTH 667 0
DWIDTH 16 0
BBX 13 18 2 0
VVECTOR 9 18
SWIDTH1 0 -1222
DWIDTH1 0 -22
BITMAP 
3C00
0E00
0300
0000
FFF8
FFF8
C000
C000
C000
C000
FFF0
FFF0
C000
C000
C000
C000
FFF8
FFF8
ENDCHAR
STARTCHAR Eacute
ENCODING 201
SWIDTH 667 0
DWIDTH 16 0
BBX 13 18 2 0
VVECTOR 9 18
SWIDTH1 0 -1222
DWIDTH1 0 -22
BITMAP 
01E0
0380
0600
0000
FFF8
FFF8
C000
C000
C000
C000
FFF0
FFF0
C000
C000
C000
C000
FFF8
FFF8
ENDCHAR
STARTCHAR Ecircumflex
ENCODING 202
SWIDTH 667 0
DWIDTH 16 0
BBX 13 18 2 0
VVECTOR 9 18
SWIDTH1 0 -1222
DWIDTH1 0 -22
BITMAP 
0F80
1DC0
3060
0000
FFF8
FFF8
C000
C000
C000
C000
FFF0
FFF0
C000
C000
C000
C000
FFF8
FFF8
ENDCHAR
STARTCHAR Edieresis
ENCODING 203
SWIDTH 667 0
DWIDTH 16 0
BBX 13 18 2 0
VVECTOR 9 18
SWIDTH1 0 -1222
DWIDTH1 0 -22
BITMAP 
1860
1860
0000
0000
FFF8
FFF8
C000
C000
C000
C000
FFF0
FFF0
C000
C000
C000
C000
FFF8
FFF8
ENDCHAR
STARTCHAR Igrave
ENCODING 204
SWIDTH 250 0
DWIDTH 6 0
BBX 6 18 0 0
VVECTOR 3 18
SWIDTH1 0 -1222
DWIDTH1 0 -22
BITMAP 
F0
38
0C
00
30
30
30
30
30
30
30
30
30
30
30
30
30
30
ENDCHAR
STARTCHAR Iacute
ENCODING 205
SWIDTH 250 0
DWIDTH 6 0
BBX 6 18 0 0
VVECTOR 3 18
SWIDTH1 0 -1222
DWIDTH1 0 -22
BITMAP 
3C
70
C0
00
30
30
30
30
30
30
30
30
30
30
30
30
30
30
ENDCHAR
STARTCHAR Icircumflex
ENCODING 206
SWIDTH 250 0
DWIDTH 6 0
BBX 6 18 0 0
VVECTOR 3 18
SWIDTH1 0 -1222
DWIDTH1 0 -22
BITMAP 
30
78
CC
00
30
30
30
30
30
30
30
30
30
30
30
30
30
30
ENDCHAR
STARTCHAR Idieresis
ENCODING 207
SWIDTH 250 0
DWIDTH 6 0
BBX 6 18 0 0
VVECTOR 3 18
SWIDTH1 0 -1222
DWIDTH1 0 -22
BITMAP 
CC
CC
00
00
30
30
30
30
30
30
30
30
30
30
30
30
30
30
ENDCHAR
STARTCHAR Eth
ENCODING 208
SWIDTH 708 0
DWIDTH 17 0
BBX 16 14 0 0
VVECTOR 8 18
SWIDTH1 0 -1222
DWIDTH1 0 -22
BITMAP 
3FE0
3FF8
301E
3006
3007
3003
FF03
FF03
3003
3007
3006
301E
3FF8
3FE0
ENDCHAR
STARTCHAR Ntilde
ENCODING 209
SWIDTH 750 0
DWIDTH 18 0
BBX 14 18 2 0
VVECTOR 9 18
SWIDTH1 0 -1222
DWIDTH1 0 -22
BITMAP 
1E10
3330
21E0
0000
C00C
E00C
F00C
F80C
DC0C
CE0C
C70C
C38C
C1CC
C0EC
C07C
C03C
C01C
C00C
ENDCHAR
STARTCHAR Ograve
ENCODING 210
SWIDTH 792 0
DWIDTH 19 0
BBX 17 18 1 0
VVECTOR 10 18
SWIDTH1 0 -1222
DWIDTH1 0 -22
BITMAP 
078000
01C000
006000
000000
07F000
1FFC00
780F00
600300
E00380
C00180
C00180
C00180
C00180
E00380
600300
780F00
1FFC00
07F000
ENDCHAR
STARTCHAR Oacute
ENCODING 211
SWIDTH 792 0
DWIDTH 19 0
BBX 17 18 1 0
VVECTOR 10 18
SWIDTH1 0 -1222
DWIDTH1 0 -22
BITMAP 
00F000
01C000
030000
000000
07F000
1FFC00
780F00
600300
E00380
C00180
C00180
C00180
C00180
E00380
600300
780F00
1FFC00
07F000
ENDCHAR
STARTCHAR Ocircumflex
ENCODING 212
SWIDTH 792 0
DWIDTH 19 0
BBX 17 18 1 0
VVECTOR 10 18
SWIDTH1 0 -1222
DWIDTH1 0 -22
BITMAP 
03E000
077000
0C1800
000000
07F000
1FFC00
780F00
600300
E00380
C00180
C00180
C00180
C00180
E00380
600300
780F00
1FFC00
07F000
ENDCHAR
STARTCHAR Otilde
ENCODING 213
SWIDTH 792 0
DWIDTH 19 0
BBX 17 18 1 0
VVECTOR 10 18
SWIDTH1 0 -1222
DWIDTH1 0 -22
BITMAP 
0F0400
19CC00
107800
000000
07F000
1FFC00
780F00
600300
E00380
C00180
C00180
C00180
C00180
E00380
600300
780F00
1FFC00
07F000
ENDCHAR
STARTCHAR Odieresis
ENCODING 214
SWIDTH 792 0
DWIDTH 19 0
BBX 17 18 1 0
VVECTOR 10 18
SWIDTH1 0 -1222
DWIDTH1 0 -22
BITMAP 
0C1800
0C1800
000000
000000
07F000
1FFC00
780F00
600300
E00380
C00180
C00180
C00180
C00180
E00380
600300
780F00
1FFC00
07F000
ENDCHAR
STARTCHAR multiply
ENCODING 215
SWIDTH 583 0
DWIDTH 14 0
BBX 8 7 3 2
VVECTOR 7 18
SWIDTH1 0 -1222
DWIDTH1 0 -22
BITMAP 
C3
66
3C
18
3C
66
C3
ENDCHAR
STARTCHAR Oslash
ENCODING 216
SWIDTH 792 0
DWIDTH 19 0
BBX 17 14 1 0
VVECTOR 10 18
SWIDTH1 0 -1222
DWIDTH1 0 -22
BITMAP 
07F300
1FFE00
780F00
601B00
E03380
C06180
C0C180
C18180
C30180
E60380
6C0300
780F00
3FFC00
67F000
ENDCHAR
STARTCHAR Ugrave
ENCODING 217
SWIDTH 708 0
DWIDTH 17 0
BBX 13 18 2 0
VVECTOR 9 18
SWIDTH1 0 -1222
DWIDTH1 0 -22
BITMAP 
3C00
0E00
0300
0000
C018
C018
C018
C018
C018
C018
C018
C018
C018
C018
C018
6030
7FF0
1FC0
ENDCHAR
STARTCHAR Uacute
ENCODING 218
SWIDTH 708 0
DWIDTH 17 0
BBX 13 18 2 0
VVECTOR 9 18
SWIDTH1 0 -1222
DWIDTH1 0 -22
BITMAP 
01E0
0380
0600
0000
C018
C018
C018
C018
C018
C018
C018
C018
C018
C018
C018
6030
7FF0
1FC0
ENDCHAR
STARTCHAR Ucircumflex
ENCODING 219
SWIDTH 708 0
DWIDTH 17 0
BBX 13 18 2 0
VVECTOR 9 18
SWIDTH1 0 -1222
DWIDTH1 0 -22
BITMAP 
0F80
1DC0
3060
0000
C018
C018
C018
C018
C018
C018
C018
C018
C018
C018
C018
6030
7FF0
1FC0
ENDCHAR
STARTCHAR Udieresis
ENCODING 220
SWIDTH 708 0
DWIDTH 17 0
BBX 13 18 2 0
VVECTOR 9 18
SWIDTH1 0 -1222
DWIDTH1 0 -22
BITMAP 
3060
3060
0000
0000
C018
C018
C018
C018
C018
C018
C018
C018
C018
C018
C018
6030
7FF0
1FC0
ENDCHAR
STARTCHAR Yacute
ENCODING 221
SWIDTH 667 0
DWIDTH 16 0
BBX 16 17 0 0
VVECTOR 8 18
SWIDTH1 0 -1222
DWIDTH1 0 -22
BITMAP 
00F0
01C0
0300
E007
700E
381C
1C38
0E70
07E0
03C0
0180
0180
0180
0180
0180
0180
0180
ENDCHAR
STARTCHAR Thorn
ENCODING 222
SWIDTH 667 0
DWIDTH 16 0
BBX 13 14 2 0
VVECTOR 9 18
SWIDTH1 0 -1222
DWIDTH1 0 -22
BITMAP 
C000
C000
C000
FFC0
FFF0
C030
C018
C018
C030
FFF0
FFC0
C000
C000
C000
ENDCHAR
STARTCHAR germandbls
ENCODING 223
SWIDTH 625 0
DWIDTH 15 0
BBX 12 14 2 0
VVECTOR 9 18
SWIDTH1 0 -1222
DWIDTH1 0 -22
BITMAP 
1F00
7FC0
60C0
C060
C0E0
C7C0
C7C0
C0E0
C030
C030
C030
C060
CFE0
CF80
ENDCHAR
STARTCHAR agrave
ENCODING 224
SWIDTH 542 0
DWIDTH 13 0
BBX 11 14 1 0
VVECTOR 7 18
SWIDTH1 0 -1222
DWIDTH1 0 -22
BITMAP 
7800
1C00
0600
0000
1F00
7F80
70C0
00C0
3FC0
7FC0
C0C0
C1C0
FFC0
3EE0
ENDCHAR
STARTCHAR aacute
ENCODING 225
SWIDTH 542 0
DWIDTH 13 0
BBX 11 14 1 0
VVECTOR 7 18
SWIDTH1 0 -1222
DWIDTH1 0 -22
BITMAP 
03C0
0700
0C00
0000
1F00
7F80
60C0
00C0
3FC0
7FC0
C0C0
C1C0
FFC0
3EE0
ENDCHAR
STARTCHAR acircumflex
ENCODING 226
SWIDTH 542 0
DWIDTH 13 0
BBX 11 14 1 0
VVECTOR 7 18
SWIDTH1 0 -1222
DWIDTH1 0 -22
BITMAP 
1F00
3B80
60C0
0000
1F00
7F80
60C0
00C0
3FC0
7FC0
C0C0
C1C0
FFC0
3EE0
ENDCHAR
STARTCHAR atilde
ENCODING 227
SWIDTH 542 0
DWIDTH 13 0
BBX 11 14 1 0
VVECTOR 7 18
SWIDTH1 0 -1222
DWIDTH1 0 -22
BITMAP 
7820
CE60
83C0
0000
1F00
7F80
60C0
00C0
3FC0
7FC0
C0C0
C1C0
FFC0
3EE0
ENDCHAR
STARTCHAR adieresis
ENCODING 228
SWIDTH 542 0
DWIDTH 13 0
BBX 11 13 1 0
VVECTOR 7 18
SWIDTH1 0 -1222
DWIDTH1 0 -22
BITMAP 
1980
1980
0000
1F00
7F80
60C0
00C0
3FC0
7FC0
C0C0
C1C0
FFC0
3EE0
ENDCHAR
STARTCHAR aring
ENCODING 229
SWIDTH 542 0
DWIDTH 13 0
BBX 11 15 1 0
VVECTOR 7 18
SWIDTH1 0 -1222
DWIDTH1 0 -22
BITMAP 
1F00
3180
3180
1F00
0000
1F00
7F80
60C0
00C0
3FC0
7FC0
E0C0
C1C0
FFC0
3EE0
ENDCHAR
STARTCHAR ae
ENCODING 230
SWIDTH 875 0
DWIDTH 21 0
BBX 20 10 1 0
VVECTOR 12 18
SWIDTH1 0 -1222
DWIDTH1 0 -22
BITMAP 
1F1F80
3FFFE0
60E060
00C030
3FFFF0
7FFFF0
C0C000
C0E030
FFFFF0
3F1FC0
ENDCHAR
STARTCHAR ccedilla
ENCODING 231
SWIDTH 500 0
DWIDTH 12 0
BBX 11 14 1 -4
VVECTOR 7 18
SWIDTH1 0 -1222
DWIDTH1 0 -22
BITMAP 
1F80
7FE0
6060
C000
C000
C000
C000
6060
7FE0
1F80
0400
0700
0180
0F00
ENDCHAR
STARTCHAR egrave
ENCODING 232
SWIDTH 583 0
DWIDTH 14 0
BBX 12 14 1 0
VVECTOR 7 18
SWIDTH1 0 -1222
DWIDTH1 0 -22
BITMAP 
3C00
0E00
0300
0000
1F80
7FE0
6060
C030
FFF0
FFF0
C000
6030
7FF0
1FC0
ENDCHAR
STARTCHAR eacute
ENCODING 233
SWIDTH 583 0
DWIDTH 14 0
BBX 12 14 1 0
VVECTOR 7 18
SWIDTH1 0 -1222
DWIDTH1 0 -22
BITMAP 
03C0
0700
0C00
0000
1F80
7FE0
6060
C030
FFF0
FFF0
C000
6030
7FF0
1FC0
ENDCHAR
STARTCHAR ecircumflex
ENCODING 234
SWIDTH 583 0
DWIDTH 14 0
BBX 12 14 1 0
VVECTOR 7 18
SWIDTH1 0 -1222
DWIDTH1 0 -22
BITMAP 
1F80
39C0
6060
0000
1F80
7FE0
6060
C030
FFF0
FFF0
C000
6030
7FF0
1FC0
ENDCHAR
STARTCHAR edieresis
ENCODING 235
SWIDTH 583 0
DWIDTH 14 0
BBX 12 14 1 0
VVECTOR 7 18
SWIDTH1 0 -1222
DWIDTH1 0 -22
BITMAP 
30C0
30C0
0000
0000
1F80
7FE0
6060
C030
FFF0
FFF0
C000
6030
7FF0
1FC0
ENDCHAR
STARTCHAR igrave
ENCODING 236
SWIDTH 250 0
DWIDTH 6 0
BBX 6 14 0 0
VVECTOR 3 18
SWIDTH1 0 -1222
DWIDTH1 0 -22
BITMAP 
F0
38
0C
00
30
30
30
30
30
30
30
30
30
30
ENDCHAR
STARTCHAR iacute
ENCODING 237
SWIDTH 250 0
DWIDTH 6 0
BBX 6 14 0 0
VVECTOR 3 18
SWIDTH1 0 -1222
DWIDTH1 0 -22
BITMAP 
3C
70
C0
00
30
30
30
30
30
30
30
30
30
30
ENDCHAR
STARTCHAR icircumflex
ENCODING 238
SWIDTH 250 0
DWIDTH 6 0
BBX 6 14 0 0
VVECTOR 3 18
SWIDTH1 0 -1222
DWIDTH1 0 -22
BITMAP 
30
78
CC
00
30
30
30
30
30
30
30
30
30
30
ENDCHAR
STARTCHAR idieresis
ENCODING 239
SWIDTH 250 0
DWIDTH 6 0
BBX 6 14 0 0
VVECTOR 3 18
SWIDTH1 0 -1222
DWIDTH1 0 -22
BITMAP 
CC
CC
00
00
30
30
30
30
30
30
30
30
30
30
ENDCHAR
STARTCHAR eth
ENCODING 240
SWIDTH 583 0
DWIDTH 14 0
BBX 12 14 1 0
VVECTOR 7 18
SWIDTH1 0 -1222
DWIDTH1 0 -22
BITMAP 
7180
1E00
0F00
3180
1FC0
7FE0
6060
C030
C030
C030
C030
6060
7FE0
1F80
ENDCHAR
STARTCHAR ntilde
ENCODING 241
SWIDTH 542 0
DWIDTH 13 0
BBX 11 14 1 0
VVECTOR 7 18
SWIDTH1 0 -1222
DWIDTH1 0 -22
BITMAP 
7820
CE60
83C0
0000
6F00
7F80
71C0
60C0
60C0
60C0
60C0
60C0
60C0
60C0
ENDCHAR
STARTCHAR ograve
ENCODING 242
SWIDTH 583 0
DWIDTH 14 0
BBX 12 14 1 0
VVECTOR 7 18
SWIDTH1 0 -1222
DWIDTH1 0 -22
BITMAP 
3C00
0E00
0300
0000
1F80
7FE0
6060
C030
C030
C030
C030
6060
7FE0
1F80
ENDCHAR
STARTCHAR oacute
ENCODING 243
SWIDTH 583 0
DWIDTH 14 0
BBX 12 14 1 0
VVECTOR 7 18
SWIDTH1 0 -1222
DWIDTH1 0 -22
BITMAP 
03C0
0700
0C00
0000
1F80
7FE0
6060
C030
C030
C030
C030
6060
7FE0
1F80
ENDCHAR
STARTCHAR ocircumflex
ENCODING 244
SWIDTH 583 0
DWIDTH 14 0
BBX 12 14 1 0
VVECTOR 7 18
SWIDTH1 0 -1222
DWIDTH1 0 -22
BITMAP 
1F80
39C0
6060
0000
1F80
7FE0
6060
C030
C030
C030
C030
6060
7FE0
1F80
ENDCHAR
STARTCHAR otilde
ENCODING 245
SWIDTH 583 0
DWIDTH 14 0
BBX 12 14 1 0
VVECTOR 7 18
SWIDTH1 0 -1222
DWIDTH1 0 -22
BITMAP 
3C20
6660
43C0
0000
1F80
7FE0
6060
C030
C030
C030
C030
6060
7FE0
1F80
ENDCHAR
STARTCHAR odieresis
ENCODING 246
SWIDTH 583 0
DWIDTH 14 0
BBX 12 14 1 0
VVECTOR 7 18
SWIDTH1 0 -1222
DWIDTH1 0 -22
BITMAP 
1980
1980
0000
0000
1F80
7FE0
6060
C030
C030
C030
C030
6060
7FE0
1F80
ENDCHAR
STARTCHAR divide
ENCODING 247
SWIDTH 583 0
DWIDTH 14 0
BBX 12 9 1 1
VVECTOR 7 18
SWIDTH1 0 -1222
DWIDTH1 0 -22
BITMAP 
0600
0600
0000
0000
FFF0
0000
0000
0600
0600
ENDCHAR
STARTCHAR oslash
ENCODING 248
SWIDTH 583 0
DWIDTH 14 0
BBX 12 10 1 0
VVECTOR 7 18
SWIDTH1 0 -1222
DWIDTH1 0 -22
BITMAP 
1FA0
7FE0
60E0
C130
C230
C430
C830
7060
7FE0
5F80
ENDCHAR
STARTCHAR ugrave
ENCODING 249
SWIDTH 542 0
DWIDTH 13 0
BBX 9 14 2 0
VVECTOR 7 18
SWIDTH1 0 -1222
DWIDTH1 0 -22
BITMAP 
F000
3800
0C00
0000
C180
C180
C180
C180
C180
C180
C180
E380
7F80
3D80
ENDCHAR
STARTCHAR uacute
ENCODING 250
SWIDTH 542 0
DWIDTH 13 0
BBX 9 14 2 0
VVECTOR 7 18
SWIDTH1 0 -1222
DWIDTH1 0 -22
BITMAP 
0780
0E00
1800
0000
C180
C180
C180
C180
C180
C180
C180
E380
7F80
3D80
ENDCHAR
STARTCHAR ucircumflex
ENCODING 251
SWIDTH 542 0
DWIDTH 13 0
BBX 9 14 2 0
VVECTOR 7 18
SWIDTH1 0 -1222
DWIDTH1 0 -22
BITMAP 
3E00
7700
C180
0000
C180
C180
C180
C180
C180
C180
C180
E380
7F80
3D80
ENDCHAR
STARTCHAR udieresis
ENCODING 252
SWIDTH 583 0
DWIDTH 14 0
BBX 10 14 2 0
VVECTOR 7 18
SWIDTH1 0 -1222
DWIDTH1 0 -22
BITMAP 
6180
6180
0000
0000
C0C0
C0C0
C0C0
C0C0
C0C0
C0C0
C0C0
E1C0
7FC0
3EC0
ENDCHAR
STARTCHAR yacute
ENCODING 253
SWIDTH 458 0
DWIDTH 11 0
BBX 11 18 0 -4
VVECTOR 6 18
SWIDTH1 0 -1222
DWIDTH1 0 -22
BITMAP 
03C0
0700
0C00
0000
C060
E0E0
60C0
71C0
3180
3B80
1B00
1F00
0E00
0E00
0C00
0C00
1800
7000
ENDCHAR
STARTCHAR thorn
ENCODING 254
SWIDTH 583 0
DWIDTH 14 0
BBX 11 18 2 -4
VVECTOR 8 18
SWIDTH1 0 -1222
DWIDTH1 0 -22
BITMAP 
C000
C000
C000
C000
DF00
FFC0
E0C0
C060
C060
C060
C060
E0C0
FFC0
DF00
C000
C000
C000
C000
ENDCHAR
STARTCHAR ydieresis
ENCODING 255
SWIDTH 458 0
DWIDTH 11 0
BBX 11 18 0 -4
VVECTOR 6 18
SWIDTH1 0 -1222
DWIDTH1 0 -22
BITMAP 
3180
3180
0000
0000
C060
E0E0
60C0
71C0
3180
3B80
1B00
1F00
0E00
0E00
0C00
0C00
1800
7000
ENDCHAR
ENDFONT
